<?xml version="1.0" encoding="UTF-8"?>
<svg xmlns="http://www.w3.org/2000/svg" viewBox="0 0 1200 630" width="1200" height="630">
  <rect width="1200" height="630" fill="#3A1458"/>
  <rect x="0" y="0" width="1200" height="630" fill="#4A1A6B"/>
  <circle cx="1080" cy="80" r="220" fill="#5C2482"/>
  <circle cx="80" cy="580" r="180" fill="#33104E"/>

  <text x="80" y="150" font-family="-apple-system, BlinkMacSystemFont, 'Helvetica Neue', Arial, sans-serif" font-weight="800" font-size="64" fill="#FFFFFF">Wayfair Scraper</text>
  <text x="80" y="210" font-family="-apple-system, BlinkMacSystemFont, 'Helvetica Neue', Arial, sans-serif" font-weight="500" font-size="28" fill="#E8D4B8">Products, prices, stock and ratings — 4 storefronts</text>

  <g transform="translate(80, 270)">
    <rect width="200" height="48" rx="24" fill="#E8A317"/>
    <text x="100" y="32" text-anchor="middle" font-family="-apple-system, BlinkMacSystemFont, Arial, sans-serif" font-weight="700" font-size="18" fill="#3A1458">$2 / 1k rows</text>
  </g>
  <g transform="translate(300, 270)">
    <rect width="220" height="48" rx="24" fill="#F4E9D8"/>
    <text x="110" y="32" text-anchor="middle" font-family="-apple-system, BlinkMacSystemFont, Arial, sans-serif" font-weight="700" font-size="18" fill="#3A1458">US · CA · UK · IE</text>
  </g>
  <g transform="translate(540, 270)">
    <rect width="200" height="48" rx="24" fill="#F4E9D8"/>
    <text x="100" y="32" text-anchor="middle" font-family="-apple-system, BlinkMacSystemFont, Arial, sans-serif" font-weight="700" font-size="18" fill="#3A1458">Pure HTTP</text>
  </g>

  <!-- sofa -->
  <g transform="translate(780, 340)">
    <rect width="340" height="96" rx="24" fill="#F4E9D8"/>
    <rect x="24" y="-40" width="130" height="78" rx="20" fill="#E8D4B8"/>
    <rect x="186" y="-40" width="130" height="78" rx="20" fill="#E8D4B8"/>
    <rect x="28" y="86" width="28" height="36" rx="6" fill="#C9A86A"/>
    <rect x="284" y="86" width="28" height="36" rx="6" fill="#C9A86A"/>
  </g>

  <text x="80" y="560" font-family="-apple-system, BlinkMacSystemFont, Arial, sans-serif" font-weight="500" font-size="22" fill="#C9A86A">Keyword, category, brand, SKU or URL  →  one product row</text>
</svg>
